<?xml version="1.0" encoding="utf-8"?>
<!-- Generator: Adobe Illustrator 19.1.0, SVG Export Plug-In . SVG Version: 6.00 Build 0)  -->
<svg version="1.1" id="Layer_1" xmlns="http://www.w3.org/2000/svg" xmlns:xlink="http://www.w3.org/1999/xlink" x="0px" y="0px"
	 viewBox="0 0 215 93" style="enable-background:new 0 0 215 93;" xml:space="preserve">
<style type="text/css">
	.st0{fill-rule:evenodd;clip-rule:evenodd;fill:#F3BB12;}
	.st1{fill-rule:evenodd;clip-rule:evenodd;fill:#FFFFFF;stroke:#F0BB14;stroke-width:2;stroke-miterlimit:10;}
	.st2{fill:#FFFFFF;stroke:#191B5B;stroke-miterlimit:10;}
	.st3{fill:#0B0146;}
	.st4{fill-rule:evenodd;clip-rule:evenodd;fill:none;}
	.st5{fill:#F3BB12;stroke:#FFFFFF;stroke-width:0.5;stroke-miterlimit:10;}
	.st6{font-family:'ArialRoundedMTBold';}
	.st7{font-size:11.3961px;}
</style>
<g>
	<path class="st0" d="M205.2,46.5c2.9-6.5,2.2-14-1.6-20S193,17,185.9,17h-147c-11.6,0-21.1,9.4-21.1,21.1
		c0,11.6,9.4,21.1,21.1,21.1h147C194.2,59.1,201.8,54.2,205.2,46.5z"/>
	<circle class="st1" cx="34.2" cy="38.1" r="30.7"/>
	<g>
		<polygon class="st2" points="89.5,44.9 84.4,42.3 79.3,44.9 80.1,39.2 76.1,35.1 81.8,34.2 84.4,29.2 87.1,34.2 92.7,35.2 
			88.7,39.3 		"/>
		<polygon class="st2" points="114.6,44.9 109.5,42.3 104.4,44.9 105.2,39.2 101.3,35.1 106.9,34.2 109.5,29.2 112.2,34.2 
			117.8,35.2 113.8,39.3 		"/>
		<polygon class="st2" points="139.7,44.9 134.6,42.3 129.5,44.9 130.3,39.2 126.4,35.1 132,34.2 134.6,29.2 137.3,34.2 142.9,35.2 
			138.9,39.3 		"/>
		<polygon class="st2" points="164.8,44.9 159.7,42.3 154.6,44.9 155.4,39.2 151.5,35.1 157.1,34.2 159.7,29.2 162.4,34.2 168,35.2 
			164,39.3 		"/>
		<polygon class="st2" points="189.9,44.9 184.8,42.3 179.7,44.9 180.5,39.2 176.6,35.1 182.2,34.2 184.8,29.2 187.5,34.2 
			193.1,35.2 189.1,39.3 		"/>
	</g>
	<g>
		<path class="st3" d="M20.8,38.8l0.9-8.4h8v2.2h-5.9l-0.5,3.8c0.3-0.2,0.6-0.4,1-0.5c0.4-0.1,0.8-0.2,1.3-0.2
			c1.4,0,2.5,0.4,3.4,1.4c0.8,0.9,1.2,2.2,1.2,3.8c0,1.5-0.4,2.7-1.3,3.7c-0.9,0.9-2.1,1.4-3.7,1.4c-1.3,0-2.5-0.4-3.4-1.1
			c-0.9-0.7-1.4-1.8-1.3-3.1l0-0.1l2.4-0.1c0,0.7,0.2,1.3,0.6,1.7c0.4,0.4,1,0.6,1.7,0.6c0.8,0,1.4-0.3,1.8-0.8
			c0.4-0.6,0.6-1.3,0.6-2.2c0-0.9-0.2-1.7-0.6-2.2c-0.4-0.6-1-0.9-1.8-0.9c-0.7,0-1.2,0.1-1.6,0.3c-0.3,0.2-0.6,0.6-0.7,1L20.8,38.8
			z"/>
		<path class="st3" d="M35.5,45.6h-2.5v-2.4h2.5V45.6z"/>
		<path class="st3" d="M48.4,39.7c0,2-0.4,3.5-1.3,4.5c-0.9,1-2.1,1.6-3.6,1.6c-1.5,0-2.8-0.5-3.7-1.6c-0.9-1-1.3-2.5-1.3-4.5v-3.5
			c0-2,0.4-3.5,1.3-4.5c0.9-1,2.1-1.6,3.6-1.6c1.5,0,2.7,0.5,3.6,1.6c0.9,1,1.3,2.6,1.3,4.5V39.7z M45.8,35.9c0-1.2-0.2-2.2-0.6-2.8
			c-0.4-0.6-1-0.9-1.8-0.9c-0.8,0-1.4,0.3-1.8,0.9c-0.4,0.6-0.6,1.5-0.6,2.8v4.2c0,1.3,0.2,2.2,0.6,2.8c0.4,0.6,1,0.9,1.8,0.9
			c0.8,0,1.4-0.3,1.8-0.9c0.4-0.6,0.6-1.5,0.6-2.8V35.9z"/>
	</g>
	<rect x="60.4" y="67" class="st4" width="155.6" height="22.8"/>
	<text transform="matrix(1 0 0 1 60.4007 75.3125)"><tspan x="0" y="0" class="st5 st6 st7">TOP RATED CUSTOMER </tspan><tspan x="0" y="13.7" class="st5 st6 st7">SERVICE - MOROCCO   </tspan></text>
</g>
</svg>
